<?xml version="1.0" encoding="utf-8"?>
<!-- Generator: Adobe Illustrator 27.9.0, SVG Export Plug-In . SVG Version: 6.00 Build 0)  -->
<svg version="1.1" id="Capa_2_00000164489163746937391240000017652082325277584033_"
	 xmlns="http://www.w3.org/2000/svg" xmlns:xlink="http://www.w3.org/1999/xlink" x="0px" y="0px" viewBox="0 0 52.5 70"
	 style="enable-background:new 0 0 52.5 70;" xml:space="preserve">
<style type="text/css">
	.st0{fill:#FFFFFF;}
	.st1{fill:#EEAE21;}
</style>
<path class="st0" d="M47.8,70c-0.2,0.1-0.3,0-0.4,0c-2.1,0-4.3,0-6.5,0c-0.3,0-0.5-0.1-0.7-0.4c-0.3-0.9-0.7-1.8-1-2.6
	c-0.3-0.8-0.6-1.5-0.9-2.3c-0.4-0.9-0.7-1.8-1.1-2.7c-0.4-1-0.8-2-1.2-3c-0.4-1.1-0.8-2.2-1.3-3.3c-0.4-1-0.8-2-1.2-3
	c-0.4-1.1-0.8-2.2-1.3-3.3c-0.4-1-0.8-2-1.2-3c-0.4-1.1-0.8-2.2-1.3-3.3c-0.4-1-0.8-2-1.2-3c-0.2-0.4-0.3-0.9-0.5-1.3
	c0-0.1,0-0.2-0.1-0.2s-0.1,0.1-0.1,0.1c-0.2,0.5-0.4,0.9-0.6,1.4c-0.6,1.6-1.2,3.2-1.9,4.8c-0.9,2.4-1.9,4.7-2.8,7.1
	c-0.6,1.6-1.2,3.1-1.9,4.7c-0.5,1.2-0.9,2.3-1.4,3.5c-0.1,0.2-0.2,0.3-0.4,0.3c-2.2,0-4.4,0-6.7,0c-0.1,0-0.1,0-0.2,0
	c-0.1,0-0.1-0.1-0.1-0.2c0-0.1,0-0.1,0.1-0.2c0.3-0.9,0.7-1.8,1-2.8c0.3-0.8,0.6-1.6,0.9-2.4c0.3-0.8,0.6-1.6,0.9-2.3
	c0.2-0.5,0.4-1,0.6-1.5c0.3-0.9,0.7-1.7,1-2.6c0.3-0.7,0.5-1.5,0.8-2.2c0.3-0.8,0.7-1.7,1-2.5c0.2-0.5,0.4-1,0.5-1.4
	c0.3-1,0.7-1.9,1.1-2.9c0.7-1.8,1.3-3.6,2-5.4c0.1-0.3,0.1-0.3,0.6-0.3c2.5,0,5.1,0,7.6,0c1.3,0,2.6,0,3.9,0c0.4,0,0.4,0,0.5,0.3
	c0.5,1.3,1,2.6,1.4,3.9c0.6,1.6,1.2,3.2,1.8,4.8c0.6,1.5,1.1,3,1.7,4.5c0.6,1.6,1.2,3.2,1.8,4.8c0.5,1.2,0.9,2.5,1.4,3.7
	c0.6,1.6,1.2,3.2,1.8,4.8c0.5,1.5,1.1,2.9,1.6,4.3c0.6,1.6,1.2,3.2,1.8,4.8C47.7,69.9,47.7,69.9,47.8,70"/>
<path class="st1" d="M29.4,0.9c0.3,0.9,0.7,1.8,1,2.7c0.5,1.4,1,2.7,1.5,4.1c0.7,2,1.5,3.9,2.2,5.9c0.2,0.7,0.5,1.3,0.7,2
	c0.1,0.3,0.2,0.5,0.6,0.6c1,0.4,2,0.7,3.1,1.1c1.7,0.6,3.4,1.2,5.1,1.9c0,0,0.1,0,0.1,0c0,0.1,0,0.1,0,0.2c-0.7,0.3-1.4,0.6-2.1,0.9
	c-1.2,0.5-2.4,1-3.6,1.5c-0.2,0.1-0.5,0.1-0.7,0.3c1.4,3.9,2.9,7.7,4.3,11.6c0,0,0,0-0.1,0c-0.4-0.3-0.8-0.6-1.1-0.9
	c-0.7-0.5-1.3-1.1-2-1.6c-0.6-0.5-1.2-1-1.8-1.6c-0.7-0.6-1.5-1.2-2.2-1.8c-0.6-0.5-1.2-1-1.8-1.5c-0.6-0.5-1.2-1-1.7-1.5
	c-0.1-0.1-0.2-0.1-0.3,0c-0.6,0.2-1.3,0.4-1.9,0.7c-1.3,0.5-2.6,0.9-3.9,1.4c-0.9,0.3-1.8,0.6-2.7,1c-0.9,0.3-1.8,0.6-2.6,0.9
	c-1.1,0.4-2.2,0.8-3.2,1.2c-0.1,0-0.2,0.1-0.3,0c0-0.1,0-0.3,0-0.4c0.4-1.2,0.9-2.4,1.3-3.6c0.7-1.9,1.4-3.8,2.1-5.7
	c0.1-0.4,0.3-0.8,0.4-1.1c0.1-0.1,0.1-0.2,0-0.3c-0.2-0.2-0.3-0.3-0.4-0.5c-0.5-0.6-1.1-1.1-1.6-1.7c-0.3-0.4-0.7-0.7-1-1.1
	c-0.3-0.4-0.8-0.7-1.1-1.1c-0.3-0.4-0.7-0.7-1-1.1c-0.4-0.5-1-0.9-1.3-1.5c-0.1-0.2-0.3-0.3-0.5-0.4c-0.5-0.5-0.9-1-1.4-1.5
	c0-0.1,0-0.1,0-0.2c2.1,0.4,4.2,0.9,6.3,1.3c1.8,0.4,3.6,0.7,5.4,1.1c0.1,0,0.1,0,0.2,0c0.1,0,0.1,0,0.1-0.1c0-0.1,0.1-0.3,0.2-0.4
	c0.2-0.4,0.4-0.7,0.6-1.1c0.4-0.8,0.9-1.6,1.3-2.4c0.4-0.8,0.8-1.7,1.3-2.5c0.4-0.8,0.8-1.6,1.3-2.4c0.4-0.7,0.8-1.4,1.2-2.2
	C29.3,0.9,29.4,0.9,29.4,0.9"/>
<path class="st1" d="M40.5,0.2c0.1,0.4,0.2,0.9,0.4,1.3C41,2,41.1,2.5,41.3,3.1c0.1,0.2,0.2,0.4,0.4,0.4c0.9,0.2,1.9,0.4,2.9,0.6
	c0,0,0,0,0.1,0.1c-0.2,0.2-0.5,0.4-0.7,0.5c-0.6,0.4-1.2,0.8-1.9,1.2C41.9,5.9,42,6,42,6.2c0.3,0.8,0.6,1.7,0.9,2.5
	c0,0.1,0.1,0.3,0.1,0.5c-0.4-0.2-0.7-0.5-1-0.8C41.5,8,41,7.6,40.4,7.2c-0.1-0.1-0.2-0.1-0.4,0c-0.9,0.6-1.9,1.2-2.8,1.8
	c-0.1,0.1-0.3,0.1-0.4,0.2c0-0.1,0-0.2,0-0.4c0.3-0.8,0.7-1.7,1-2.6c0.1-0.2,0-0.3-0.1-0.5c-1.1-1.2-2.2-2.3-3.4-3.5
	c-0.1-0.1-0.3-0.2-0.3-0.4c0.1-0.1,0.2,0,0.4,0c1.3,0.3,2.6,0.6,4,0.8c0.3,0.1,0.4,0,0.5-0.2c0.4-0.7,0.9-1.5,1.3-2.2
	c0-0.1,0-0.1,0.1-0.2C40.3,0.1,40.4,0.2,40.5,0.2"/>
<path class="st1" d="M7.3,25.6c0.3-0.9,0.7-1.8,1-2.7c0.1-0.2,0.1-0.4-0.1-0.5c-0.5-0.4-0.9-0.9-1.3-1.4c-0.6-0.7-1.3-1.4-2-2.1
	c-0.1-0.1-0.2-0.1-0.1-0.3c0.2,0,0.5,0.1,0.7,0.1c1.2,0.3,2.4,0.5,3.7,0.8c0.4,0.1,0.4,0,0.6-0.3c0.4-0.7,0.6-1.4,1-2.1
	c0-0.1,0.1-0.1,0.2-0.2c0.2,0.6,0.3,1.1,0.5,1.7c0.1,0.4,0.2,0.9,0.4,1.3c0.1,0.2,0.1,0.3,0.3,0.3c0.9,0.2,1.9,0.4,2.9,0.6
	c-0.2,0.3-0.5,0.4-0.7,0.5c-0.6,0.4-1.1,0.7-1.7,1c-0.2,0.1-0.2,0.2-0.1,0.4c0.2,0.5,0.4,1,0.5,1.5c0.1,0.4,0.3,0.8,0.4,1.3
	c-0.4-0.1-0.7-0.4-0.9-0.6c-0.5-0.4-1-0.8-1.5-1.2c-0.2-0.2-0.3-0.2-0.6,0c-0.9,0.6-1.9,1.2-2.8,1.8c0,0-0.1,0-0.1,0
	C7.4,25.6,7.4,25.6,7.3,25.6"/>
<path class="st0" d="M43.7,19.3c0-0.1,0-0.1,0-0.2c0.1,0,0.2,0,0.2,0.1C44,19.3,43.8,19.3,43.7,19.3"/>
<path class="st0" d="M7.3,25.6c0.1,0,0.1,0,0.2,0c0,0.1-0.1,0.2-0.2,0.1C7.2,25.7,7.3,25.6,7.3,25.6"/>
<path class="st0" d="M40.5,0.2c-0.1,0-0.1-0.1-0.2,0c0-0.1,0.1-0.2,0.2-0.1C40.5,0,40.5,0.1,40.5,0.2"/>
<path class="st0" d="M11.6,9.5c0,0.1,0,0.1,0,0.2c-0.1,0-0.1-0.1-0.1-0.2C11.4,9.5,11.5,9.5,11.6,9.5"/>
<path class="st0" d="M29.4,0.9c-0.1,0-0.1,0-0.2,0c0-0.1,0-0.1,0.1-0.1C29.5,0.8,29.4,0.9,29.4,0.9"/>
<path class="st0" d="M23.5,11.9C23.5,11.9,23.5,12,23.5,11.9L23.5,11.9z"/>
</svg>
